<?xml version="1.0" encoding="utf-8"?>
<svg version="1.1"
     xmlns="http://www.w3.org/2000/svg"
     xmlns:xlink="http://www.w3.org/1999/xlink"
     x="0px"
     y="0px"
     class="active-panel-share-screen-icon"
	 viewBox="0 0 138 141.3"
     xml:space="preserve">
<path d="M113.2,0H24.8C11.2,0,0,11.2,0,24.8v55.4C0,93.8,11.2,105,24.8,105h88.4c13.6,0,24.8-11.2,24.8-24.8V24.8
	C138,11.2,126.8,0,113.2,0z M71.1,82V63.4c0,0-28.8-4-42.7,15.3c0,0-5.1-34.6,42.9-40.4l-0.3-20L114.3,50L71.1,82z"/>
<path d="M57.4,118.6h22.7c1,0,1.9,0.4,2.4,1.1c2.2,3.1,8.8,11.9,15.3,17.3c1.8,1.5,0.6,4.2-1.9,4.2H42.2c-2.5,0-3.8-2.7-1.9-4.2
	c4.9-4,11.6-10.4,14.5-16.9C55.2,119.2,56.2,118.6,57.4,118.6z"/>
</svg>
