<svg version="1.1" id="Layer_1" xmlns="http://www.w3.org/2000/svg" x="0px" y="0px"
	 viewBox="0 0 208.9 208.9" xml:space="preserve" class="stop-sharing-icon-svg">
<style type="text/css">
    	.stop-sharing-icon-svg {width: 100%; height: auto;}
	    .stop-sharing-icon-svg .st0{fill:#FFFFFF; enable-background:new;}
	    .stop-sharing-icon-svg .st1{fill:#231F20;}
</style>
<g>
	<circle class="st0" cx="104.4" cy="104.4" r="101.9"/>
	<path class="st1" d="M104.4,208.9C46.8,208.9,0,162,0,104.4C0,46.8,46.8,0,104.4,0s104.4,46.8,104.4,104.4
		C208.9,162,162,208.9,104.4,208.9z M104.4,5C49.6,5,5,49.6,5,104.4s44.6,99.4,99.4,99.4s99.4-44.6,99.4-99.4S159.3,5,104.4,5z"/>
</g>
<g id="RKT7w7.tif_1_">
	<g>
		<path class="st1" d="M199.6,104.6c-10.1,10.2-21.1,18.6-33.1,25.8c-21.1,12.7-43.5,20.5-68.6,19c-13.8-0.9-26.8-4.7-39.3-10.4
			c-17.4-8-32.9-18.8-46.8-31.9c-0.8-0.8-1.5-1.7-2.5-2.8c10-10.1,21.1-18.6,33.1-25.8c21.2-12.8,43.9-20.7,69.1-19
			c13.8,0.9,26.8,4.8,39.2,10.6c16.8,7.7,31.7,18.1,45.3,30.7C197.1,101.9,198.2,103.1,199.6,104.6z M104.4,72
			C86.2,72,71.9,86.4,72,104.7c0.1,17.9,14.4,32.1,32.5,32.1c17.9,0,32.4-14.4,32.6-32.2C137.2,86.7,122.5,72,104.4,72z"/>
		<path class="st1" d="M110.5,82.8c-2.2,4.7-2.4,9,1.6,12.5c4.2,3.6,8.5,2.9,12.6-0.4c5,8.6,2.7,20.1-5.5,27.1c-8.5,7.3-21,7.3-29.7,0
			c-8.4-7-10.4-19.4-5-29C89.5,84.2,101.7,79,110.5,82.8z"/>
	</g>
</g>
<rect x="3.6" y="102.1" transform="matrix(0.7454 0.6666 -0.6666 0.7454 96.4389 -43.3856)" class="st1" width="202.8" height="5"/>
</svg>
