<?xml version="1.0" encoding="utf-8"?>
<svg version="1.1"
     xmlns="http://www.w3.org/2000/svg"
     xmlns:xlink="http://www.w3.org/1999/xlink"
     x="0px"
	 y="0px"
     class="active-panel-track-teacher-icon"
     viewBox="-326 51.7 138 141.3"
     xml:space="preserve">
<style type="text/css">
	svg.active-panel-track-teacher-icon .st0{fill:none;stroke:#000000;stroke-width:6;stroke-linecap:round;stroke-linejoin:round;stroke-miterlimit:10;}
</style>
<path d="M-268.6,170.3h22.7c1,0,1.9,0.4,2.4,1.1c2.2,3.1,8.8,11.9,15.3,17.3c1.8,1.5,0.6,4.2-1.9,4.2h-53.7c-2.5,0-3.8-2.7-1.9-4.2
	c4.9-4,11.6-10.4,14.5-16.9C-270.8,170.9-269.8,170.3-268.6,170.3z"/>
<path class="st0" d="M-215.8,80.5"/>
<path d="M-212.8,51.7h-88.4c-13.6,0-24.8,11.2-24.8,24.8v55.4c0,13.6,11.2,24.8,24.8,24.8h88.4c13.6,0,24.8-11.2,24.8-24.8V76.5
	C-188,62.9-199.2,51.7-212.8,51.7z M-306.4,69.9c0-2.7,2.2-5,5-5h73.9c2.7,0,5,2.2,5,5v22.7c0,1.8-1.5,3.3-3.3,3.3s-3.3-1.5-3.3-3.3
	v-21h-70.7v53h22.6c1.8,0,3.3,1.5,3.3,3.3c0,1.8-1.5,3.3-3.3,3.3h-24.2c-2.7,0-5-2.2-5-5V69.9z M-272.8,91c-0.9,0-1.7-0.7-1.7-1.7
	c0-0.9,0.7-1.7,1.7-1.7h33.6c0.9,0,1.7,0.7,1.7,1.7c0,0.9-0.7,1.7-1.7,1.7H-272.8z M-245.8,100.5c0,0.9-0.7,1.7-1.7,1.7h-25.3
	c-0.9,0-1.7-0.7-1.7-1.7s0.7-1.7,1.7-1.7h25.4C-246.5,98.8-245.8,99.6-245.8,100.5z M-239.2,79.9h-33.6c-0.9,0-1.7-0.7-1.7-1.7
	s0.7-1.7,1.7-1.7h33.6c0.9,0,1.7,0.7,1.7,1.7S-238.2,79.9-239.2,79.9z M-264.5,140.5h-44.1c-0.9,0-1.7-0.7-1.7-1.7s0.7-1.7,1.7-1.7
	h44.1c0.9,0,1.7,0.7,1.7,1.7S-263.6,140.5-264.5,140.5z M-251.3,145.2l1.8-5.7l-5.1,1.6c-0.6,0.2-1.2,0.2-1.8,0.1
	c-1.3-0.3-3.6-1.3-5.9-4.7c-2.9-4.1-7.6-11.4-9.6-14.4c-0.5-0.7-0.9-1.9-0.9-2.8c0-0.8,0.2-1.6,0.5-2.3c-0.1-0.1-0.3-0.2-0.4-0.4
	l-14.8-20.4c-0.5-0.7-0.4-1.8,0.4-2.3c0.7-0.5,1.8-0.4,2.3,0.4l14.8,20.5c0.1,0.2,0.2,0.3,0.2,0.5c0.7-0.1,1.4-0.1,2.3,0.2
	c1,0.3,2.2,1.3,2.7,2.1l7.8,13.6c0.5,1,1.7,1.3,2.7,0.8l18.3-9.9h0.5c-3-2.4-4.8-6.1-4.8-10.3c0-7.4,6-13.3,13.3-13.3
	c0.3,0,0.7,0,1,0c6.9,0.5,12.3,6.3,12.3,13.3c0,4.9-2.6,9.1-6.5,11.4h0.4c0,0,16.6,5.8,16.2,21.9L-251.3,145.2L-251.3,145.2z"/>
</svg>
