<?xml version="1.0" encoding="utf-8"?>
<svg version="1.1"
     xmlns="http://www.w3.org/2000/svg"
     xmlns:xlink="http://www.w3.org/1999/xlink"
     x="0px"
	 y="0px"
     class="active-panel-track-student-icon"
     viewBox="0 0 138 141.3"
     xml:space="preserve">
<style type="text/css">
	svg.active-panel-track-student-icon .st0{fill:none;stroke:#000000;stroke-width:6;stroke-linecap:round;stroke-linejoin:round;stroke-miterlimit:10;}
</style>
<path d="M57.4,118.6h22.7c1,0,1.9,0.4,2.4,1.1c2.2,3.1,8.8,11.9,15.3,17.3c1.8,1.5,0.6,4.2-1.9,4.2H42.2c-2.5,0-3.8-2.7-1.9-4.2
	c4.9-4,11.6-10.4,14.5-16.9C55.2,119.2,56.2,118.6,57.4,118.6z"/>
<path class="st0" d="M110.2,28.8"/>
<path d="M113.2,0H24.8C11.2,0,0,11.2,0,24.8v55.4C0,93.8,11.2,105,24.8,105h88.4c13.6,0,24.8-11.2,24.8-24.8V24.8
	C138,11.2,126.8,0,113.2,0z M44.4,20.6c8-3.8,16-7.4,24-11.1c0.7-0.3,1.5-0.6,2.2-0.8C71.3,9,72,9.2,72.7,9.5c8,3.7,16,7.3,24,11.1
	c1,0.5,1.7,1.6,2.5,2.4c-0.8,0.7-1.5,1.7-2.5,2.1c-7.9,3.7-15.8,7.4-23.8,10.9c-1.3,0.6-3.2,0.6-4.5,0c-8.1-3.5-16.1-7.3-24-11
	c-0.9-0.4-1.6-1.5-2.4-2.2C42.8,22.1,43.5,21,44.4,20.6z M92.5,52.8c-2.1,0-2.2-1.2-2.2-2.8c0-3.5-0.2-6.9,0.1-10.4
	c0.2-2.8,0.8-5.5,1.3-8.2c0.1-0.4,0.8-0.7,1.9-1.6c0.4,7.3,0.7,13.8,1,20.3C94.7,51.5,94.7,52.8,92.5,52.8z M80.6,52.6
	c-6.1,4.7-14.5,5-20.7,0.6c-6.4-4.5-8.9-12.4-6.1-20.3c3,1.4,6.3,2.5,9,4.3c5.3,3.4,10.4,3.3,15.7,0c2.3-1.5,5-2.4,7.7-3.6
	C88.7,40.1,86.4,48.1,80.6,52.6z M99.3,88.5c-3.7,2.8-8,4-12.4,4.8c-5.6,1-11.3,1.6-14.6,2c-10.5-0.3-18.5-1.2-26.1-4
	c-8.2-3-9.5-5.8-6.6-13.9c3-8.2,8.3-14.2,16.4-17.5c1.6-0.6,3.8-0.8,5.4-0.2c5.9,2.1,11.5,2.1,17.4,0c1.5-0.6,3.7-0.4,5.2,0.3
	c10,4.2,15.5,12.1,17.8,22.6C102.3,85.1,101.3,87,99.3,88.5z"/>
</svg>
