<svg version="1.1" xmlns="http://www.w3.org/2000/svg"
     xml:space="preserve" x="0px" y="0px"
     viewBox="0 0 80 80" class="reading-svg">

    <style type="text/css">
        .reading-svg {
        width: 100%;
        height: auto;
        }
    </style>

    <g>
        <path d="M4.2,11.3c0.3,0,0.5-0.1,0.7-0.1c3.5,0.2,6.9-0.4,10.3-1.5c6.6-2.1,13.1-1,19.6,0.9c3.8,1.1,7.7,1.1,11.5,0
		c7.8-2.3,15.5-3,23.1,0.4c0.5,0.2,1.1,0.2,1.6,0.2c1.8,0,3.6,0,5.5,0c0,17.3,0,34.5,0,51.8c-10,0-20.1,0-30.1,0
		c-0.1,0.8-0.1,1.4-0.2,2.1c-3.6,0-7.2,0-11,0c0-0.6-0.1-1.3-0.2-2.1c-10.3,0-20.5,0-30.9,0C4.2,45.7,4.2,28.6,4.2,11.3z M39.4,60.5
		c0-1.1,0-1.8,0-2.5c0-13.2,0.1-26.4,0.1-39.6c0-4.2,0-4.2-4-5.6c-8.5-2.9-17-3.6-25.3,0.6c-1.2,0.6-1.7,1.3-1.7,2.8
		c0.1,13.9,0,27.9,0,41.8c0,0.6,0,1.2,0,1.9C18.8,57.6,29,56.7,39.4,60.5z M72.2,60c0-0.8,0-1.5,0-2.1c0-12.8,0-25.6,0-38.5
		c0-5.6,0-5.7-5.5-7.5c-8.1-2.8-15.8-1.2-23.4,1.8c-1.4,0.5-1.8,1.3-1.8,2.7c0,14.1,0,28.1,0,42.2c0,0.6,0,1.2,0,2
		C51.7,56.8,61.9,57.6,72.2,60z"/>
        <path d="M33.2,25.1c-0.2,0-0.5-0.1-0.7-0.2c-9.2-5.2-17-0.3-17.3-0.1c-0.7,0.4-1.6,0.3-2.1-0.4
		c-0.5-0.7-0.3-1.6,0.4-2c0.4-0.3,9.5-6.2,20.4-0.1c0.7,0.4,1,1.3,0.6,2C34.2,24.8,33.7,25.1,33.2,25.1z"/>
        <path d="M33.2,33.2c-0.2,0-0.5-0.1-0.7-0.2c-9.2-5.2-17-0.3-17.3-0.1c-0.7,0.4-1.6,0.3-2.1-0.4
		c-0.5-0.7-0.3-1.6,0.4-2c0.4-0.3,9.5-6.2,20.4-0.1c0.7,0.4,1,1.3,0.6,2C34.2,33,33.7,33.2,33.2,33.2z"/>
        <path d="M33.2,41.4c-0.2,0-0.5-0.1-0.7-0.2c-9.2-5.2-17-0.3-17.3-0.1c-0.7,0.4-1.6,0.3-2.1-0.4
		c-0.5-0.7-0.3-1.6,0.4-2c0.4-0.3,9.5-6.2,20.4-0.1c0.7,0.4,1,1.3,0.6,2C34.2,41.1,33.7,41.4,33.2,41.4z"/>
        <path d="M33.2,49.5c-0.2,0-0.5-0.1-0.7-0.2c-9.2-5.2-17-0.3-17.3-0.1c-0.7,0.4-1.6,0.3-2.1-0.4
		c-0.5-0.7-0.3-1.6,0.4-2c0.4-0.3,9.5-6.2,20.4-0.1c0.7,0.4,1,1.3,0.6,2C34.2,49.3,33.7,49.5,33.2,49.5z"/>
        <path d="M66.5,24.7c-0.2,0-0.5-0.1-0.7-0.2c-9.2-5.2-17-0.3-17.3-0.1c-0.7,0.4-1.6,0.3-2.1-0.4
		c-0.5-0.7-0.3-1.6,0.4-2c0.4-0.3,9.5-6.2,20.4-0.1c0.7,0.4,1,1.3,0.6,2C67.6,24.5,67.1,24.7,66.5,24.7z"/>
        <path d="M66.5,32.9c-0.2,0-0.5-0.1-0.7-0.2c-9.2-5.2-17-0.3-17.3-0.1c-0.7,0.4-1.6,0.3-2.1-0.4
		c-0.5-0.7-0.3-1.6,0.4-2c0.4-0.3,9.5-6.2,20.4-0.1c0.7,0.4,1,1.3,0.6,2C67.6,32.6,67.1,32.9,66.5,32.9z"/>
        <path d="M66.5,41c-0.2,0-0.5-0.1-0.7-0.2c-9.2-5.2-17-0.3-17.3-0.1c-0.7,0.4-1.6,0.3-2.1-0.4
		c-0.5-0.7-0.3-1.6,0.4-2c0.4-0.3,9.5-6.2,20.4-0.1c0.7,0.4,1,1.3,0.6,2C67.6,40.7,67.1,41,66.5,41z"/>
        <path d="M66.5,49.2c-0.2,0-0.5-0.1-0.7-0.2c-9.2-5.2-17-0.3-17.3-0.1c-0.7,0.4-1.6,0.3-2.1-0.4
		c-0.5-0.7-0.3-1.6,0.4-2c0.4-0.3,9.5-6.2,20.4-0.1c0.7,0.4,1,1.3,0.6,2C67.6,48.9,67.1,49.2,66.5,49.2z"/>
    </g>
</svg>
