<svg version="1.1" xmlns="http://www.w3.org/2000/svg"
     x="0px" y="0px" viewBox="-586.4 16.3 301.4 213.6" xml:space="preserve"
    class="verbal-icon-svg">
<style type="text/css">
    .verbal-icon-svg {width: 100%; height: auto;}
    .verbal-icon-svg .st0{fill:none;enable-background:new    ;}
</style>
<path d="M-546.8,113.1c0-20.2,0-40.3,0-60.5c0-7.8,0.9-9.1,8.7-8c11.5,1.5,22.9,3.7,34.3,6.1c3.5,0.7,6.8,2.7,10,4.3
	c6.3,3.2,9.2,7.7,9.1,15.5c-0.5,36.6-0.2,73.3-0.2,110c0,8.6-1.3,9.5-9.4,6.7c-15.1-5.2-30.4-8.6-46.5-5.6c-3.6,0.7-5.4-1.1-5.9-4.4
	c-0.2-1.5-0.1-3-0.1-4.5C-546.8,152.7-546.8,132.9-546.8,113.1z M-526.4,142.5c-1.7,0-2.5,0-3.3,0c-3.2,0-6.4,0.2-6.5,4.3
	c-0.1,4.1,3,4.6,6.3,4.5c9.9-0.2,18.9,2.8,27.4,7.8c2.6,1.6,5.1,1.8,6.9-1c1.8-3,0.1-5-2.4-6.5C-507.1,146.2-516.7,143-526.4,142.5z
	 M-529.3,66.9c0.2,0-0.3,0-0.8,0c-3.1,0.2-6.3,0.6-6.1,4.8c0.2,3.9,3.2,4,6.2,4c9.7-0.1,18.6,2.8,26.9,7.7c2.6,1.6,5.4,2.5,7.4-0.7
	c2.1-3.3-0.1-5.2-2.7-6.8C-507.8,70.4-517.8,67.2-529.3,66.9z M-526.6,117.3c-1.8,0-2.6,0-3.5,0c-3.2,0-6.3,0.5-6.2,4.6
	c0.1,3.8,3,4.1,6.1,4.1c9.9,0,18.9,2.8,27.4,7.8c2.8,1.7,5.5,2,7.2-1.2c1.6-3.1-0.4-4.9-2.9-6.4C-507.4,121-517.1,117.7-526.6,117.3
	z M-527.2,92.3c-1.5,0-3-0.1-4.5,0c-2.9,0.2-5.2,1.8-4.4,4.7c0.4,1.6,3.1,3.7,4.7,3.7c10.3,0.1,19.7,2.8,28.5,8
	c2.8,1.6,5.5,2.1,7.3-1.1c1.7-3.1-0.4-5-2.9-6.4C-507.3,95.9-516.8,92.6-527.2,92.3z"/>
<path class="st0"/>
<g>
	<path d="M-391.9,156.9l-20,5c-1.1,0.3-2-0.5-1.7-1.7l5-20c0.4-1.5,2.2-2.3,3.1-1.4l15.1,15.1C-389.6,154.7-390.5,156.5-391.9,156.9
		z"/>
	<path d="M-299.8,34.6l13.9,13.9c1.2,1.2,1.2,3.2,0,4.5l-5.9,5.9c-1.2,1.2-3.2,1.2-4.5,0l-13.9-13.9c-1.2-1.2-1.2-3.2,0-4.5l5.9-5.9
		C-303,33.3-301,33.3-299.8,34.6z"/>
	<path d="M-384.3,150.6l85.5-85.5c1-1,1.2-2.5,0.5-3.2l-15.5-15.5c-0.8-0.8-2.2-0.5-3.2,0.5l-85.5,85.5c-1,1-1.2,2.5-0.5,3.2
		l15.5,15.5C-386.7,151.8-385.3,151.6-384.3,150.6z"/>
</g>
<g>
	<path d="M-355.7,129.9c-0.6,0.6-0.9,1.3-0.9,2.1c0,19.4-0.1,38.8,0.1,58.1c0.1,5.5-1.4,7.1-7.1,7.5c-31.1,2-61.3,8.9-90.6,19.6
		c-3.8,1.4-7,1.5-10.9,0.1c-29.9-10.8-60.7-17.9-92.5-19.8c-4.3-0.3-5.5-1.7-5.5-5.7c0.1-52.7,0.1-105.5,0-158.2
		c0-4.5,1.6-6.1,6-6.1c30.5-0.2,60.1,4,88.6,15.5c4.1,1.7,4.5,4.1,4.5,7.9c-0.1,46.5-0.1,93.1-0.1,139.6c0,1.7-0.5,3.7,0.1,5.1
		c0.9,1.8,2.6,3.3,4,4.9c1.6-1.7,3.5-3.1,4.5-5c0.7-1.3,0.2-3.4,0.2-5.1c0-46.3,0.1-92.6-0.1-138.9c0-4.8,1.3-7,5.9-8.8
		c27.7-11.2,56.5-15,86.1-15.1c5.4,0,6.9,1.9,6.9,7.1c-0.1,9.7-0.2,33.9-0.2,39.7c0,0.8,0.9,1.3,1.5,0.8l21.8-20.9
		c0.7-0.5,1.1-1.3,1.1-2.1c0-11.1-0.9-11.6-13.4-13.1c0-2.8,0.1-5.7,0-8.6c-0.2-7.9-4-12.9-11.9-13.2c-11.7-0.5-23.5-0.2-35.3,0.7
		c-21.9,1.7-42.9,7.2-63.3,15.4c-2.4,1-5.9,0.5-8.4-0.5c-27.3-11.3-55.9-15.6-85.2-16.4c-3.6-0.1-7.3,0.1-10.9,0.6
		c-9.1,1.2-12.8,5.3-13,14.3c-0.1,2.5,0,5,0,7.7c-4.7,0.5-8.6,1-12.6,1.5v181.4c3.6,0.3,7.2,1,10.8,1c28.1,0.1,56.2-0.3,84.2,0.3
		c7.7,0.2,15.5,2.4,22.9,5c6,2.1,11.3,2.9,17.1,0c8.6-4.2,17.7-5.5,27.4-5.3c26.8,0.4,53.6,0.1,80.4,0.1c9.4,0,11.3-1.9,11.4-11.2
		c0-31.6-1.6-68.3-1.7-100.3c0-1.4-1.6-2-2.6-1.1C-341.7,115.3-352.5,126.8-355.7,129.9z"/>
</g>
</svg>
