<?xml version="1.0" encoding="utf-8"?>
<svg version="1.1"
     id="Layer_9"
     xmlns="http://www.w3.org/2000/svg"
     xmlns:xlink="http://www.w3.org/1999/xlink"
     x="0px" y="0px"
	 viewBox="0 0 109.3 175.4"
     style="enable-background:new 0 0 109.3 175.4;"
     xml:space="preserve">
<g>
	<path d="M79.4,104c-1.6-2.4-2.5-3.6-3.3-4.9C60,71.6,44,44.1,27.7,16.6c-2-3.3-1.5-5.2,1.1-7.6C38,0.4,48.7-2.4,60.5,2.2
		c12.7,4.9,19.8,15,20.2,28.3c0.7,21.6,0.2,43.3,0.1,64.9C80.8,97.8,80.1,100.2,79.4,104z"/>
	<path d="M46.7,168.1c0-8.6,0-16.2,0-24.2c-12.1-1.6-22.9-5.8-31.6-14.5C5.2,119.6,0,107.8,0,93.8c0-10.1,0-20.3,0-30.7
		c2.6,0,4.8,0,7.6,0c0,10.2,0.1,20.3,0,30.4C7.5,106,12,116.6,21.3,125c12.7,11.4,27.4,14.3,43.6,8.9c1.2-0.4,2.5-0.9,4.3-1.5
		c1.1,2,2.3,3.9,3.9,6.7c-6.3,1.8-12.1,3.5-18.4,5.3c0,7.3,0,15,0,23.4c8.7,0,17.2,0,26.2,0c0,2.7,0,4.7,0,7.2
		c-20.7,0-41.4,0-62.4,0c0-2.2,0-4.2,0-6.9C27.8,168.1,37.1,168.1,46.7,168.1z"/>
	<path d="M63.4,122.3c-17.2,9.1-38.3-1.1-43.2-20.3c-0.5-2.1-0.8-4.2-1.1-6.4c-0.2-1.5-0.1-3-0.1-4.5c0-14,0-28,1-42.4
		C34.4,73.1,48.8,97.6,63.4,122.3z"/>
	<path d="M3.2,3.4c2-1.2,3.5-2.1,5.5-3.3c33.6,57.4,67,114.4,100.6,171.8c-1.7,1.1-3.2,2.1-5.4,3.5C70.3,118,36.9,60.9,3.2,3.4z"/>
	<path d="M90.7,122.9c-3.3-3.3-3.9-6.1-2-10.7c2.5-5.8,3.8-12.4,4.2-18.7c0.7-10.1,0.2-20.2,0.2-30.5c2.5,0,4.4,0,7,0
		C98.5,83.3,104.6,104.5,90.7,122.9z"/>
</g>
</svg>
