<svg x="0px"
     y="0px"
     class="calls-phone-icon"
     viewBox="0 0 124.5 124.8"
     xmlns="http://www.w3.org/2000/svg">
    <g>
        <path d="M0.1,28.1c-0.6-6.5,1.8-11.6,6.6-16c3.1-2.8,5.8-5.9,8.9-8.8c4.7-4.4,9.5-4.6,14.2-0.3
		c6,5.6,11.7,11.4,17.3,17.3c4.1,4.4,4,8.9,0,13.4c-2.7,3.1-5.7,6.1-8.9,8.8c-2.5,2.2-3.1,4.2-1.4,7.2c9.4,16.2,22.2,29,38.7,37.8
		c1.2,0.7,3.9,0.2,5-0.8c3.2-2.6,5.9-5.8,8.9-8.7c5.3-5,10.1-5.1,15.3-0.1c5.5,5.3,10.9,10.7,16.2,16.3c4.6,4.8,4.6,9.7,0.1,14.6
		c-3.5,3.8-7.2,7.4-10.9,11c-6.4,6-14.1,5.5-21.6,3.6c-22.5-5.6-40.8-18.3-56.7-34.7C17.3,73.6,5.8,56.4,0.9,35.6
		c-0.2-0.8-0.5-1.6-0.5-2.4C0.2,31.5,0.2,29.8,0.1,28.1z"/>
    </g>
</svg>
