<svg  x="0px"
      y="0px"
      class="calls-outcomming-call"
	  viewBox="0 0 80 80">
<g id="XMLID_24_">
	<path id="XMLID_22_" d="M28.8,80c-3.6-1.9-7.3-3.8-10.9-5.7c-0.6-0.3-1.1-0.9-1.8-1.6C21.9,68,27.5,63.5,33,58.9
		c0.2,0.1,0.4,0.1,0.5,0.1c3.7,2.5,4.1,2.5,7.7-0.3c6.5-5.1,12.4-10.9,17.5-17.5c2.9-3.7,3-4,0.2-8.2c4.5-5.6,9.1-11.2,13.8-17
		c3.6,3.6,5.6,8.1,7.4,12.6c0,0.7,0,1.3,0,2c-0.2,0.3-0.5,0.6-0.6,0.9c-9.7,22-25.6,37.9-47.6,47.6c-0.3,0.1-0.6,0.4-0.9,0.6
		C30.1,80,29.5,80,28.8,80z"/>
	<path id="XMLID_21_" d="M21,31.8c-4.6-4.3-9.2-8.7-14.2-13.5c-0.7,0.8-1.8,2.3-3,3.5c-0.5,0.5-1.4,0.8-2.1,0.6
		C1.3,22.4,1,21.3,1,20.6C1.1,14.9,1.3,9.2,1.4,3.4c0-1.4,0.6-2,2-2C9.2,1.3,14.9,1.1,20.6,1c0.6,0,1.8,0.3,1.8,0.7
		c0.1,0.6-0.2,1.6-0.6,2.1C20.7,5,19.4,6.2,18.5,7c4.5,4.8,8.9,9.4,13.3,14c0,0.5,0,1.1,0,1.6c-3.1,3.1-6.1,6.1-9.2,9.2
		C22.1,31.8,21.6,31.8,21,31.8z"/>
	<path id="XMLID_20_" d="M56.7,30.7c-0.2-0.1-0.3-0.1-0.3-0.1c-4-3.4-4-3.5-0.7-7.5c2.6-3.2,5.2-6.4,7.8-9.6
		c2.2-2.7,3.1-2.8,5.8-0.5c0.3,0.3,0.6,0.5,1,0.9C65.8,19.6,61.3,25.2,56.7,30.7z"/>
	<path id="XMLID_19_" d="M13.9,70.4c-0.7-0.9-1.3-1.5-1.8-2.2c-1.1-1.4-1-2.8,0.4-3.9c4.2-3.5,8.4-6.9,12.7-10.3
		c1.2-1,2.4-1,3.5,0.3c0.7,0.7,1.5,1.3,2.4,2.2C25.2,61.2,19.7,65.8,13.9,70.4z"/>
</g>
</svg>
