<svg version="1.1" xmlns="http://www.w3.org/2000/svg" x="0px" y="0px"
	 viewBox="0 0 170.1 126.2" xml:space="preserve" class="start-lesson-icon-svg">
    <style type="text/css">
	.start-lesson-icon-svg {width: 100%; height: auto;}
	.start-lesson-icon-svg .st0{fill:#ffffff;enable-background:new;}
</style>
<g class="st0">
	<path d="M63.6,90.4c0,11.8,0,23.6,0,35.8c-21.1,0-42,0-63.2,0c-0.1-1.5-0.3-2.9-0.3-4.4c0-14.7-0.1-29.3,0-44
		c0.1-14.4,6.9-21,21.2-21c8,0,16,0,24,0c7.6,0.1,14.3,2.6,19.7,8.2c4.8,4.9,9.6,9.7,14.5,14.5C83.1,83,87,83,90.7,79.4
		c5.3-5.3,10.5-10.7,15.9-15.9c4.9-4.7,10.4-4.1,14.1,1.1c2.6,3.7,2.2,7.4-0.8,10.5c-8.7,9.2-17.5,18.3-26.5,27.1
		c-5.4,5.2-10.8,5.1-16.4-0.1c-4.2-3.9-7.9-8.5-11.8-12.8C64.6,89.6,64.1,90,63.6,90.4z"/>
	<path d="M161.5,117.4c0-36.7,0-72.4,0-108.4c-25.6,0-51,0-76.8,0c0,17.3,0,34.4,0,51.9c-3.1,0-5.8,0-8.8,0c0-20.1,0-40.2,0-60.6
		c31.4,0,62.6,0,94.2,0c0,41.8,0,83.5,0,125.6c-31.3,0-62.6,0-94.3,0c0-2.7,0-5.3,0-8.5C104.3,117.4,132.7,117.4,161.5,117.4z"/>
	<path d="M6.6,25.3C6.6,11,17.9-0.2,32,0c13.7,0.2,25.1,11.7,25.1,25.4c0,13.9-11.7,25.5-25.6,25.3C17.8,50.6,6.6,39.2,6.6,25.3z"/>
</g>
</svg>
