<svg version="1.1"
     xmlns="http://www.w3.org/2000/svg"
     xmlns:xlink="http://www.w3.org/1999/xlink"
     x="0px"
     y="0px"
	 viewBox="0 0 180.8 171.2"
     xml:space="preserve"
     class="znk-exercise-eraser">
<style type="text/css">
    .znk-exercise-eraser {
        width: 26px;
    }

    .znk-exercise-eraser .st0 {
        fill: none;
    }

    .znk-exercise-eraser .st1 {
        fill: url(#znk-exercise-eraser-SVGID_1_);
    }
</style>
<pattern  x="-3207.2" y="-3890.7" width="4.5" height="4.3" patternUnits="userSpaceOnUse" id="New_Pattern_Swatch_3" viewBox="0 -4.3 4.5 4.3" style="overflow:visible;">
	<g>
		<polygon class="st0" points="0,0 4.5,0 4.5,-4.3 0,-4.3 		"/>
		<polygon points="0.7,-3.6 0,-3.6 0,-4.3 0.7,-4.3 		"/>
		<polygon points="4.5,-3.6 3.8,-3.6 3.8,-4.3 4.5,-4.3 		"/>
		<polygon points="0.7,0 0,0 0,-0.7 0.7,-0.7 		"/>
		<polygon points="4.5,0 3.8,0 3.8,-0.7 4.5,-0.7 		"/>
	</g>
</pattern>
<path d="M89.5,171.2H57.9c-0.5,0-1.1-0.2-1.5-0.5l-44.3-33.1c-1.1-0.8-1.3-2.4-0.5-3.5l58.6-78.5c0.8-1.1,2.4-1.3,3.5-0.5
	c1.1,0.8,1.3,2.4,0.5,3.5l-57.1,76.4l41.6,31.1h29.6l47.2-61.8c0.8-1.1,2.4-1.3,3.5-0.5c1.1,0.8,1.3,2.4,0.5,3.5l-47.9,62.8
	C91.1,170.9,90.3,171.2,89.5,171.2z"/>
<g>

		<pattern  id="znk-exercise-eraser-SVGID_1_"
                  xlink:href="#New_Pattern_Swatch_3"
                  patternTransform="matrix(1.4011 -0.2109 0.2109 1.4011 2667.2153 506.0711)">
	</pattern>
	<polyline class="st1" points="134.6,109.5 127.3,118.6 127.3,118.6 61.8,70.2 72.4,56.9 113,2.5 178.3,51.2 137.7,105.6 	"/>
	<path d="M127.3,121.1c-0.5,0-1-0.2-1.5-0.5L60.3,72.2c-0.5-0.4-0.9-1-1-1.7c-0.1-0.7,0.1-1.4,0.5-1.9l10.6-13.3L111,1
		c0.4-0.5,1-0.9,1.6-1c0.7-0.1,1.3,0.1,1.9,0.5l65.3,48.7c1.1,0.8,1.3,2.4,0.5,3.5l-40.6,54.4c-0.8,1-2.1,1.3-3.2,0.7
		c0.8,0.9,0.9,2.3,0.1,3.2l-7.3,9.1C128.8,120.8,128.1,121.1,127.3,121.1z M65.4,69.7l61.5,45.4l5.8-7.2c0.8-1,2.1-1.2,3.1-0.6
		c-0.8-0.9-0.9-2.2-0.1-3.2l39.1-52.4L113.5,6L74.4,58.4L65.4,69.7z"/>
</g>
<rect y="166.2" width="89.5" height="5"/>
</svg>
