<svg version="1.1"
     xmlns="http://www.w3.org/2000/svg"
     xmlns:xlink="http://www.w3.org/1999/xlink"
     x="0px"
     y="0px"
     class="znk-exercise-pointer"
	 viewBox="0 0 150.4 169.6"
     xml:space="preserve">
<style>
    .znk-exercise-pointer{
        width: 18px;
    }
</style>
<path d="M34.4,169.6c-1.6,0-3.2-0.5-4.6-1.6l-13-10.1c-3.2-2.5-3.9-7-1.6-10.3l33.2-48.5c0.4-0.6,0.5-1.4,0.3-2.2
	c-0.2-0.7-0.8-1.3-1.5-1.5L4.4,81.1C1.9,80.2,0.2,78,0,75.3c-0.2-2.6,1.2-5.1,3.6-6.3L143,0.5c1.8-0.9,3.9-0.7,5.4,0.5
	c1.6,1.2,2.3,3.2,1.9,5.1l-31.2,152.1c-0.5,2.6-2.6,4.6-5.2,5.1c-2.6,0.5-5.2-0.6-6.7-2.8l-24.7-37.6c-0.4-0.7-1.1-1.1-1.9-1.1
	c-0.8-0.1-1.5,0.3-2,0.8L40.1,167C38.6,168.7,36.5,169.6,34.4,169.6z M145.3,5C145.2,5,145.2,5,145.3,5L5.8,73.5C5,73.9,5,74.7,5,75
	c0,0.3,0.2,1,1,1.3l42.8,14.4c2.2,0.8,3.9,2.5,4.7,4.7c0.7,2.2,0.4,4.6-0.9,6.6l-33.2,48.5c-0.8,1.1-0.5,2.7,0.6,3.5l13,10.1
	c1.1,0.8,2.6,0.7,3.5-0.3l38.5-44.4c1.5-1.8,3.8-2.7,6.1-2.6c2.4,0.2,4.5,1.4,5.8,3.4l24.7,37.6c0.5,0.8,1.3,0.7,1.6,0.7
	c0.3-0.1,1-0.3,1.2-1.2L145.4,5.2C145.4,5.2,145.4,5.1,145.3,5C145.3,5,145.3,5,145.3,5z"/>
</svg>
