<svg version="1.1"
     xmlns="http://www.w3.org/2000/svg"
     xmlns:xlink="http://www.w3.org/1999/xlink"
     x="0px"
     y="0px"
	 viewBox="0 0 138.2 171.4"
     xml:space="preserve"
     class="znk-exercise-pencil">
<style>
    .znk-exercise-pencil{
        width: 20px;
    }
</style>
<g>
	<g>
		<path d="M0,171.4C0,171.4,0,171.4,0,171.4c3.7-19,7.5-38,11.2-57L94.6,6.6c9.3-6.9,19.5-8.3,30.7-4.6c2.4,1.9,4.7,3.7,7.1,5.6
			c6.3,9.9,7.6,20.1,3.2,30.8L52.3,146.2C34.9,154.6,17.4,163,0,171.4z M50.3,140c26.9-34.9,53.6-69.1,80-103.7
			c5.5-7.3,3.8-18.5-2.6-24.8c-9.6-9.5-23.3-8.7-31.6,1.9c-25.2,32.5-50.3,65-75.4,97.6c-1,1.2-1.7,2.6-2.6,4l7.6,5.9
			c1.4-1.9,2.6-3.4,3.8-5c22.8-29.5,45.6-59.1,68.5-88.6c0.8-1,1.4-2.2,2.4-2.9c1.2-0.8,2.7-1.1,4-1.6c0,1.6,0.3,3.2-0.1,4.7
			c-0.4,1.3-1.7,2.3-2.5,3.5C79,60.1,56.3,89.5,33.6,118.9c-1.3,1.6-2.5,3.3-3.8,4.9l9.5,7.4c1.6-2.1,2.9-3.8,4.2-5.5
			c23.2-30,46.3-59.9,69.5-89.8c1.1-1.4,3.3-1.8,5-2.7c-0.4,1.9-0.5,3.9-1.2,5.6c-0.5,1.3-1.7,2.3-2.6,3.5
			c-22.4,29-44.8,57.9-67.1,86.9c-1.3,1.7-2.6,3.3-4,5.2L50.3,140z M16.3,120.6c-0.4,0.5-3.8,19.1-5.8,30.2c-0.6,3.6,2.9,6.4,6.2,5
			c8.9-3.7,23.2-9.7,29-12.5L16.3,120.6z"/>
	</g>
</g>
</svg>
