<svg version="1.1"
     xmlns="http://www.w3.org/2000/svg"
     xmlns:xlink="http://www.w3.org/1999/xlink"
     x="0px"
     y="0px"
	 viewBox="0 0 176.3 173.8"
     xml:space="preserve"
class="znk-exercise-remove">
    <style>
       .znk-exercise-remove{
           width: 22px;
       }
    </style>
<g>
	<path d="M173.3,20.8H3c-1.7,0-3-1.3-3-3s1.3-3,3-3h170.3c1.7,0,3,1.3,3,3S174.9,20.8,173.3,20.8z"/>
	<path d="M89.1,173.8H41.5c-10.5,0-13.7-9.8-13.9-14.9L19.6,21.4c-0.1-1.7,1.2-3.1,2.8-3.2c1.6-0.1,3.1,1.2,3.2,2.8l8.1,137.5
		c0.1,1,0.7,9.3,7.9,9.3h47.6c1.7,0,3,1.3,3,3S90.8,173.8,89.1,173.8z"/>
	<path d="M136.7,173.8H89.1c-1.7,0-3-1.3-3-3s1.3-3,3-3h47.6c7.2,0,7.9-8.3,7.9-9.2l8.1-137.5c0.1-1.7,1.5-2.9,3.2-2.8
		c1.7,0.1,2.9,1.5,2.8,3.2l-8.1,137.5C150.4,164.1,147.2,173.8,136.7,173.8z"/>
	<path d="M120.5,20.8c-1.7,0-3-1.3-3-3v-6.4c0-3-2.4-5.4-5.4-5.4H65.5c-3,0-5.4,2.4-5.4,5.4v6.4c0,1.7-1.3,3-3,3s-3-1.3-3-3v-6.4
		C54.1,5.1,59.2,0,65.5,0h46.6c6.3,0,11.4,5.1,11.4,11.4v6.4C123.5,19.5,122.2,20.8,120.5,20.8z"/>
	<path d="M62.5,147.7c-1.7,0-3-1.3-3-3v-103c0-1.7,1.3-3,3-3s3,1.3,3,3v103C65.5,146.3,64.2,147.7,62.5,147.7z"/>
	<path d="M89.1,147.7c-1.7,0-3-1.3-3-3v-103c0-1.7,1.3-3,3-3s3,1.3,3,3v103C92.1,146.3,90.8,147.7,89.1,147.7z"/>
	<path d="M114.6,147.7c-1.7,0-3-1.3-3-3v-103c0-1.7,1.3-3,3-3s3,1.3,3,3v103C117.6,146.3,116.3,147.7,114.6,147.7z"/>
</g>
</svg>
