<svg class="essay-svg"
     version="1.1"
     id="Layer_1"
     xmlns="http://www.w3.org/2000/svg"
     xmlns:xlink="http://www.w3.org/1999/xlink"
     x="0px"
     y="0px"
     viewBox="-512.7 23.1 202 202"
     xml:space="preserve">
<style type="text/css">
    .essay-svg{
        width: 75px;
    }

	.essay-svg path{
        fill: #FF5895;
    }
</style>
        <path class="st0" />
		<path d="M-512.7,68c67.3,0,134.7,0,202,0c0,7.5,0,15,0,22.4c-67.3,0-134.7,0-202,0C-512.7,82.9-512.7,75.5-512.7,68z"/>
		<path d="M-512.7,112.9c67.3,0,134.7,0,202,0c0,7.5,0,15,0,22.4c-67.3,0-134.7,0-202,0C-512.7,127.8-512.7,120.3-512.7,112.9z"/>
		<path d="M-512.7,157.8c67.3,0,134.7,0,202,0c0,7.5,0,15,0,22.4c-67.3,0-134.7,0-202,0C-512.7,172.7-512.7,165.2-512.7,157.8z"/>
		<path d="M-310.7,45.5c-44.6,0-89.2,0-134.7,0c0-7.7,0-15.1,0-22.4c44.9,0,89.8,0,134.7,0C-310.7,30.6-310.7,38.1-310.7,45.5z"/>
		<path d="M-512.7,202.6c44.6,0,89.2,0,134.7,0c0,7.7,0,15.1,0,22.4c-44.9,0-89.8,0-134.7,0C-512.7,217.5-512.7,210.1-512.7,202.6z"/>
</svg>
