<svg version="1.1"
     class="math-section-svg"
     xmlns="http://www.w3.org/2000/svg"
     xmlns:xlink="http://www.w3.org/1999/xlink"
     x="0px"
     y="0px"
     viewBox="-554 409.2 90 83.8"
     xml:space="preserve">
    <style type="text/css">
        .math-section-svg{
            height: 80px;
        }

        .math-section-svg path{
            fill: #AF89D2;
        }
    </style>
    <g>
        <path d="M-491.4,447.3c-3,0-6.1,0-9.1,0c-2.9,0-4.7-1.8-4.7-4.7c0-6.1,0-12.1,0-18.2c0-2.9,1.8-4.7,4.7-4.7c6,0,12,0,18,0
		c2.8,0,4.7,1.9,4.7,4.7c0,6.1,0,12.1,0,18.2c0,2.8-1.8,4.6-4.6,4.6C-485.4,447.4-488.4,447.3-491.4,447.3z M-491.4,435.5
		c2.5,0,5,0,7.5,0c1.6,0,2.5-0.8,2.4-2c-0.1-1.5-1.1-1.9-2.4-1.9c-5,0-10.1,0-15.1,0c-1.6,0-2.6,0.8-2.5,2c0.2,1.4,1.1,1.9,2.5,1.9
		C-496.5,435.5-494,435.5-491.4,435.5z"/>
        <path d="M-526.6,447.3c-3,0-6,0-8.9,0c-3,0-4.7-1.8-4.8-4.8c0-6,0-11.9,0-17.9c0-3,1.9-4.8,4.9-4.8c5.9,0,11.8,0,17.7,0
		c3.1,0,4.9,1.8,4.9,4.8c0,6,0,11.9,0,17.9c0,3.1-1.8,4.8-4.9,4.8C-520.6,447.4-523.6,447.3-526.6,447.3z M-526.4,443.5
		c1.3-0.1,2-0.9,2-2.2c0.1-1.5,0.1-3,0-4.5c0-1.1,0.4-1.4,1.4-1.4c1.4,0.1,2.8,0,4.1,0c1.3,0,2.2-0.5,2.2-1.9c0.1-1.3-0.8-2-2.3-2
		c-1.4,0-2.8-0.1-4.1,0c-1.2,0.1-1.6-0.4-1.5-1.6c0.1-1.4,0-2.8,0-4.1c0-1.3-0.6-2.2-1.9-2.2c-1.4,0-2,0.8-2,2.2c0,1.5,0,3,0,4.5
		c0,1-0.3,1.3-1.3,1.3c-1.5,0-3,0-4.5,0c-1.3,0-2.2,0.6-2.2,2c0,1.4,0.9,1.9,2.2,1.9c1.5,0,3,0,4.5,0c1.1,0,1.4,0.4,1.4,1.4
		c-0.1,1.5,0,3,0,4.5C-528.4,442.6-527.8,443.3-526.4,443.5z"/>
        <path d="M-526.5,454.9c3,0,6,0,8.9,0c3,0,4.8,1.8,4.8,4.8c0,6,0,12,0,18c0,2.9-1.8,4.7-4.7,4.7c-6.1,0-12.1,0-18.2,0
		c-2.8,0-4.6-1.9-4.6-4.6c0-6.1,0-12.1,0-18.2c0-2.9,1.8-4.6,4.7-4.7C-532.5,454.8-529.5,454.9-526.5,454.9z M-526.7,471.1
		c1.6,1.7,2.9,3,4.2,4.3c0.9,0.9,1.9,1.2,3,0.3c1-0.8,0.9-1.9-0.2-3.1c-1-1.1-2.1-2.1-3.2-3.2c-0.6-0.6-0.6-1.1,0-1.7
		c1-1,2-1.9,2.9-2.9c1.3-1.3,1.4-2.4,0.4-3.3c-0.9-0.8-2-0.7-3.2,0.5c-1.2,1.3-2.3,2.6-3.8,4.3c-1.5-1.7-2.6-3-3.8-4.2
		c-1.2-1.3-2.4-1.4-3.3-0.5c-1,0.9-0.8,2,0.5,3.3c1.2,1.2,2.4,2.4,3.8,3.8c-1.4,1.4-2.7,2.6-3.9,3.8c-1.2,1.2-1.3,2.3-0.3,3.2
		c0.9,0.9,2,0.8,3.2-0.4C-529.2,473.9-528.1,472.6-526.7,471.1z"/>
        <path d="M-505.2,468.5c0-3,0-6,0-8.9c0-2.9,1.7-4.7,4.7-4.7c6.1,0,12.1,0,18.2,0c2.9,0,4.6,1.8,4.7,4.7c0,6,0,12,0,18
		c0,2.8-1.9,4.7-4.7,4.7c-6.1,0-12.1,0-18.2,0c-2.8,0-4.6-1.8-4.6-4.6C-505.3,474.7-505.2,471.6-505.2,468.5z M-491.4,476
		c2.5,0,5,0,7.5,0c1.3,0,2.3-0.5,2.4-1.9c0.1-1.3-0.8-2.1-2.4-2.1c-5,0-10.1,0-15.1,0c-1.6,0-2.6,0.9-2.5,2.1
		c0.2,1.4,1.1,1.9,2.5,1.9C-496.5,476-494,476-491.4,476z M-491.4,461.2c-2.5,0-5.1,0-7.6,0c-1.6,0-2.6,0.8-2.5,2
		c0.2,1.4,1.1,1.9,2.5,1.9c5,0,10.1,0,15.1,0c1.3,0,2.3-0.4,2.4-1.9c0.1-1.3-0.8-2-2.4-2C-486.4,461.2-488.9,461.2-491.4,461.2z"/>
    </g>
</svg>
