<svg version="1.1" xmlns="http://www.w3.org/2000/svg" xmlns:xlink="http://www.w3.org/1999/xlink" x="0px" y="0px"
	 viewBox="-1062 567 176.2 162.6" style="enable-background:new -1062 567 176.2 162.6;" xml:space="preserve"
     class="info-message-icon">
<style type="text/css">
	info-message-icon .st0{
    fill:none;
    enable-background:new;
    }
</style>
<path class="st0" d="M-454,182.8"/>
<g>
	<path class="st0" d="M-1020.7,697c-1.5-0.7-3-1.3-4.5-1.9c-22-8.7-36.5-29.5-36.6-53c-0.1-9.5-0.3-19.1,1.3-28.4c4.2-24.2,25.1-44.2,49.7-45.6
		c24.6-1.4,49.3-1.5,73.9,0c27.4,1.7,49.4,25.5,50.8,53c0.7,13.6,1.6,27.3-3.5,40.5c-8.3,21.7-28.8,37.5-52,37.1
		c-14.5-0.2-27.3,3.2-40,9.6c-14.8,7.5-30.2,14-45.4,20.8c-1.8,0.8-4.3,0.3-6.4,0.4c0.1-2.3-0.5-4.9,0.3-6.8
		C-1029.3,714.2-1025,705.8-1020.7,697z M-974.2,623.8c-6,0.1-10.8,4.9-10.8,10.8c0,5.9,4.9,10.8,10.8,10.9
		c6.1,0.1,11.2-5.1,11-11.2C-963.2,628.4-968.2,623.7-974.2,623.8z M-1030.2,634.6c0,6.1,4.7,10.8,10.7,10.9
		c5.9,0.1,10.9-4.8,11-10.7c0.1-6.1-4.8-11.1-11.1-11C-1025.6,623.8-1030.2,628.5-1030.2,634.6z M-928.8,623.8
		c-6,0.1-10.8,4.9-10.8,10.8c0,5.9,4.9,10.8,10.8,10.9c6.2,0.1,11-4.9,10.9-11.2C-918,628.2-922.7,623.7-928.8,623.8z"/>
</g>
</svg>
