<svg
    version="1.1"
    id="Layer_8"
    x="0px"
    y="0px"
    class="etutoring-exercise-icon"
    viewBox="0 0 680.8 427.5"
    style="enable-background:new 0 0 680.8 427.5;"
    xml:space="preserve">
<style type="text/css">
    .etutoring-exercise-icon .st0{fill:none;stroke:#000000;stroke-width:5;stroke-miterlimit:10;}
	.etutoring-exercise-icon .st1{fill:none;stroke:#000000;stroke-width:5;stroke-linecap:round;stroke-miterlimit:10;}
</style>
<path class="st0" d="M495.6,425H180.5c-29.5,0-53.7-24.1-53.7-53.7V56.2c0-29.5,24.1-53.7,53.7-53.7h315.2
	c29.5,0,53.7,24.1,53.7,53.7v315.2C549.3,400.9,525.2,425,495.6,425z"/>
<path class="st0" d="M155.7,414.2H63.9c-33.8,0-61.4-27.6-61.4-61.4V77.5C2.5,43.7,30.1,16,63.9,16h84.3"/>
<path class="st0" d="M525.1,414.2h91.8c33.8,0,61.4-27.6,61.4-61.4V77.5c0-33.8-27.6-61.4-61.4-61.4h-84.3"/>
<path class="st1" d="M296.1,158.3c0,0,66-56.7,95,5c25.5,54.2-30.7,73.4-51,78.4c-4.1,1-6.9,4.7-6.7,8.9c0.2,6.5,0.5,15.8,0.3,21.5"
	/>
<circle cx="333.7" cy="319.4" r="7.1"/>
</svg>
