<svg version="1.1" id="Layer_1" xmlns="http://www.w3.org/2000/svg" x="0px" y="0px"
	 viewBox="-821.7 301.5 118.4 104.3" xml:space="preserve" class="etutoring-slides-icon">
<style type="text/css">
	.etutoring-slides-icon {width: 100%; height: auto}
	.etutoring-slides-icon .st0{fill:#231F20;}
</style>
<path class="st0" d="M-714.1,364.5h-96.7c-6,0-10.9-4.9-10.9-10.9v-41.3c0-6,4.9-10.9,10.9-10.9h96.7c6,0,10.9,4.9,10.9,10.9v41.3
	C-703.3,359.7-708.1,364.5-714.1,364.5z M-810.8,305.5c-3.8,0-6.9,3.1-6.9,6.9v41.3c0,3.8,3.1,6.9,6.9,6.9h96.7
	c3.8,0,6.9-3.1,6.9-6.9v-41.3c0-3.8-3.1-6.9-6.9-6.9H-810.8z"/>
<path class="st0" d="M-705.3,372.5h-114.4c-1.1,0-2-0.9-2-2s0.9-2,2-2h114.4c1.1,0,2,0.9,2,2S-704.2,372.5-705.3,372.5z"/>
<path class="st0" d="M-791.6,405.7c-0.3,0-0.7-0.1-1-0.3c-1-0.6-1.3-1.8-0.7-2.7l19.5-33.2c0.6-1,1.8-1.3,2.7-0.7
	c1,0.6,1.3,1.8,0.7,2.7l-19.5,33.2C-790.2,405.4-790.9,405.7-791.6,405.7z"/>
<path class="st0" d="M-734.3,405.7c-0.7,0-1.3-0.3-1.7-0.9l-21-33.2c-0.6-0.9-0.3-2.2,0.6-2.8c0.9-0.6,2.2-0.3,2.8,0.6l21,33.2
	c0.6,0.9,0.3,2.2-0.6,2.8C-733.5,405.6-733.9,405.7-734.3,405.7z"/>
</svg>
