<svg version="1.1" id="Layer_1" xmlns="http://www.w3.org/2000/svg" x="0px" y="0px" class="calendar-icon"
     viewBox="0 0 176.3 200">
    <style>
        .calendar-icon{
        enable-background:new 0 0 176.3 200;
        width:35px;
        height: auto;
        }
    </style>
    <g id="XMLID_40_">
        <path id="XMLID_138_" d="M164.1,200c-50.7,0-101.3,0-152,0C3.1,196-0.1,189.1,0,179.3c0.3-36.5,0.1-73,0.1-109.5c0-1.9,0-3.8,0-5.6
		c59,0,117.3,0,176,0c0,2,0,3.8,0,5.6c0,36.5-0.2,73,0.1,109.5C176.4,189.1,173.2,196,164.1,200z M163.9,156.3
		c-10.8,0-21.1,0-31.4,0c0,10.7,0,21.1,0,31.4c10.6,0,20.9,0,31.4,0C163.9,177.2,163.9,166.9,163.9,156.3z M123.9,156.2
		c-10.8,0-21.1,0-31.5,0c0,10.6,0,21,0,31.4c10.7,0,21.1,0,31.5,0C123.9,177,123.9,166.7,123.9,156.2z M52.4,187.7
		c10.8,0,21.1,0,31.5,0c0-10.6,0-21,0-31.4c-10.7,0-21.1,0-31.5,0C52.4,166.9,52.4,177.2,52.4,187.7z M12.5,156.2
		c0,10.7,0,21.1,0,31.4c10.7,0,21.1,0,31.4,0c0-10.6,0-20.9,0-31.4C33.4,156.2,23.1,156.2,12.5,156.2z M163.8,147.7
		c0-10.8,0-21.1,0-31.4c-10.7,0-21.1,0-31.4,0c0,10.7,0,20.9,0,31.4C142.9,147.7,153.2,147.7,163.8,147.7z M123.9,147.7
		c0-10.8,0-21.1,0-31.5c-10.6,0-21,0-31.4,0c0,10.7,0,21.1,0,31.5C103.1,147.7,113.4,147.7,123.9,147.7z M52.4,147.6
		c10.8,0,21.2,0,31.4,0c0-10.7,0-21.1,0-31.4c-10.7,0-20.9,0-31.4,0C52.4,126.7,52.4,137,52.4,147.6z M43.9,116.3
		c-10.7,0-21.1,0-31.4,0c0,10.7,0,21.1,0,31.4c10.6,0,20.9,0,31.4,0C43.9,137.2,43.9,127,43.9,116.3z M132.5,76.1
		c0,10.9,0,21.3,0,31.5c10.7,0,20.9,0,31.3,0c0-10.6,0-21,0-31.5C153.3,76.1,143,76.1,132.5,76.1z M92.5,76.2c0,10.8,0,21.1,0,31.4
		c10.7,0,21.1,0,31.4,0c0-10.7,0-20.9,0-31.4C113.4,76.2,103.1,76.2,92.5,76.2z M83.9,76.3c-10.8,0-21.1,0-31.4,0
		c0,10.7,0,21.1,0,31.4c10.6,0,20.9,0,31.4,0C83.9,97.2,83.9,86.9,83.9,76.3z M43.9,76.3c-10.8,0-21.2,0-31.4,0
		c0,10.7,0,21.1,0,31.4c10.7,0,20.9,0,31.4,0C43.9,97.1,43.9,86.9,43.9,76.3z"/>
        <path id="XMLID_119_" d="M176.1,55.8c-58.9,0-117.1,0-175.7,0c0-6.4-0.6-12.7,0.2-18.9c1-7.6,7.6-12.7,15.5-12.9
		c4.3-0.1,8.7,0,13,0c4.1,0,8.3,0,13,0c0-5.8-0.1-11.2,0-16.6c0.1-4.7,2.5-7.7,6.2-7.3c4.3,0.4,5.8,3.2,5.8,7.3
		c-0.1,5.3,0,10.6,0,16.3c22.6,0,45,0,68,0c0-5.4,0.1-10.8,0-16.3c-0.1-4.1,1.4-6.9,5.8-7.3c3.7-0.4,6.2,2.6,6.2,7.3
		c0.1,5.3,0,10.6,0,16.6c7.8,0,15.4,0,23,0c12.9,0,19,6.1,19,18.9C176.1,47,176.1,51.1,176.1,55.8z M122.2,29.9
		c-5.7,4.3-7.2,9.1-5.1,14.4c2,5.2,7.3,8.3,12.7,7.6c5.2-0.7,9.5-4.9,10.3-10.1c0.8-4.9-1.5-9.2-5.9-11.2c0,3.1,0.1,6.1,0,9
		c-0.1,3.7-2.1,6.1-5.8,6.2c-4,0.1-6-2.4-6.1-6.3C122.1,36.6,122.2,33.6,122.2,29.9z M42.2,29.9c-5.7,4.3-7.2,9-5.2,14.3
		c2,5.2,7.2,8.3,12.7,7.6c5.2-0.7,9.5-4.9,10.4-10.1c0.8-4.8-1.4-9.2-5.9-11.2c0,3.3,0.2,6.4,0,9.5c-0.2,3.4-2.3,5.6-5.7,5.7
		c-3.7,0.1-5.9-2.1-6.1-5.8C42,36.9,42.2,33.8,42.2,29.9z"/>
    </g>
</svg>