<svg version="1.1" id="Layer_1" xmlns="http://www.w3.org/2000/svg"  x="0px" y="0px"
	 viewBox="-830.8 420 117.6 141" xml:space="preserve" class="etutoring-exercise-icon">
<style type="text/css">
	.etutoring-exercise-icon {width: 100%; height: auto}
	.etutoring-exercise-icon .st0{fill:#231F20;}
</style>
<g>
	<path class="st0" d="M-723.5,561h-97c-5.7,0-10.3-4.6-10.3-10.3V430.3c0-5.7,4.6-10.3,10.3-10.3h97c5.7,0,10.3,4.6,10.3,10.3v120.5
		C-713.2,556.4-717.8,561-723.5,561z M-820.5,424c-3.5,0-6.3,2.8-6.3,6.3v120.4c0,3.5,2.8,6.3,6.3,6.3h97c3.4,0,6.3-2.8,6.3-6.2
		V430.3c0-3.5-2.8-6.3-6.3-6.3H-820.5z"/>
	<path class="st0" d="M-797.9,536.9c-0.2,0-0.4,0-0.6-0.1l-6-3.2l-5.9,3.2c-0.4,0.2-1,0.2-1.4-0.1c-0.4-0.3-0.6-0.8-0.5-1.3l1.1-6.7
		l-4.8-4.6c-0.4-0.3-0.5-0.9-0.3-1.3s0.6-0.8,1-0.9l6.6-1l3-6.1c0.2-0.4,0.7-0.7,1.2-0.7s0.9,0.3,1.2,0.7l3,6.1l6.7,1
		c0.5,0.1,0.9,0.4,1,0.9c0.1,0.5,0,1-0.3,1.3l-4.9,4.6l1.2,6.7c0.1,0.5-0.1,1-0.5,1.3C-797.4,536.8-797.6,536.9-797.9,536.9z
		 M-804.5,530.8c0.2,0,0.4,0,0.6,0.1l4.3,2.3l-0.8-4.8c-0.1-0.4,0.1-0.9,0.4-1.2l3.5-3.3l-4.8-0.7c-0.4-0.1-0.8-0.3-1-0.7l-2.1-4.4
		l-2.1,4.4c-0.2,0.4-0.5,0.6-1,0.7l-4.7,0.7l3.4,3.3c0.3,0.3,0.4,0.7,0.4,1.1l-0.8,4.8l4.2-2.3
		C-804.9,530.9-804.7,530.8-804.5,530.8z"/>
	<path class="st0" d="M-778.7,536.9c-0.3,0-0.5-0.1-0.8-0.2c-0.4-0.3-0.6-0.8-0.5-1.3l1.2-6.7l-4.8-4.6c-0.4-0.3-0.5-0.9-0.3-1.3
		s0.6-0.8,1-0.9l6.6-1l3-6.1c0.2-0.4,0.7-0.7,1.2-0.7s0.9,0.3,1.2,0.7l3,6.1l6.6,1c0.5,0.1,0.9,0.4,1,0.9s0,1-0.3,1.3l-4.8,4.6
		l1.2,6.7c0.1,0.5-0.1,1-0.5,1.3s-0.9,0.3-1.4,0.1l-6-3.2l-6,3.2C-778.3,536.8-778.5,536.9-778.7,536.9z M-772.1,530.8
		c0.2,0,0.4,0,0.6,0.1l4.3,2.3l-0.8-4.8c-0.1-0.4,0.1-0.9,0.4-1.2l3.4-3.3l-4.7-0.7c-0.4-0.1-0.8-0.3-1-0.7l-2.1-4.4l-2.1,4.4
		c-0.2,0.4-0.5,0.6-1,0.7l-4.7,0.7l3.4,3.3c0.3,0.3,0.5,0.7,0.4,1.2l-0.8,4.8l4.3-2.3C-772.5,530.9-772.3,530.8-772.1,530.8z"/>
	<path class="st0" d="M-746.3,536.9c-0.3,0-0.5-0.1-0.8-0.2c-0.4-0.3-0.6-0.8-0.5-1.3l1.1-6.7l-4.8-4.6c-0.4-0.3-0.5-0.9-0.3-1.3
		c0.1-0.5,0.6-0.8,1-0.9l6.7-1l3-6.1c0.2-0.4,0.7-0.7,1.2-0.7c0,0,0,0,0,0c0.5,0,0.9,0.3,1.2,0.7l2.9,6.1l6.7,1
		c0.5,0.1,0.9,0.4,1,0.9c0.1,0.5,0,1-0.3,1.3l-4.8,4.6l1.1,6.7c0.1,0.5-0.1,1-0.5,1.3c-0.4,0.3-0.9,0.3-1.4,0.1l-5.9-3.2l-6,3.2
		C-745.9,536.8-746.1,536.9-746.3,536.9z M-747.6,524l3.4,3.3c0.3,0.3,0.4,0.7,0.4,1.1l-0.8,4.8l4.3-2.3c0.4-0.2,0.8-0.2,1.2,0
		l4.2,2.3l-0.8-4.8c-0.1-0.4,0.1-0.8,0.4-1.1l3.4-3.3l-4.8-0.7c-0.4-0.1-0.8-0.3-1-0.7l-2.1-4.3l-2.1,4.3c-0.2,0.4-0.5,0.6-1,0.7
		L-747.6,524z"/>
	<path class="st0" d="M-730.2,446.5h-85.9c-0.7,0-1.3-0.6-1.3-1.3s0.6-1.3,1.3-1.3h85.9c0.7,0,1.3,0.6,1.3,1.3
		S-729.5,446.5-730.2,446.5z"/>
	<path class="st0" d="M-730.2,467.8h-85.9c-0.7,0-1.3-0.6-1.3-1.3s0.6-1.3,1.3-1.3h85.9c0.7,0,1.3,0.6,1.3,1.3
		S-729.5,467.8-730.2,467.8z"/>
	<path class="st0" d="M-739.3,488.9H-807c-0.6,0-1.1-0.5-1.1-1.1s0.5-1.1,1.1-1.1h67.7c0.6,0,1.1,0.5,1.1,1.1
		S-738.7,488.9-739.3,488.9z"/>
</g>
</svg>
