<?xml version="1.0" encoding="utf-8"?>
<svg version="1.1" id="Layer_1" xmlns="http://www.w3.org/2000/svg" xmlns:xlink="http://www.w3.org/1999/xlink" x="0px" y="0px"
	 viewBox="0 0 153.7 147.9" style="enable-background:new 0 0 153.7 147.9;" xml:space="preserve">
<g>
	<path d="M16.1,147.9c0-2.4,0-4.5,0-6.7c0-23.8,0.1-47.6-0.1-71.4c0-3.1,0.9-5.1,3.5-7c18.1-13.1,36-26.3,53.9-39.7
		c2.9-2.1,4.6-1.9,7.3,0.1c17.9,13.4,35.9,26.5,53.8,39.8c1.5,1.1,3.2,3.3,3.2,4.9c0.2,26.5,0.1,52.9,0.1,79.8c-14,0-27.7,0-42,0
		c0-15,0-30,0-45.3c-12.7,0-24.8,0-37.5,0c0,15.1,0,30.1,0,45.5C44.1,147.9,30.5,147.9,16.1,147.9z"/>
	<path d="M76.9,0c15.7,11.5,30.9,22.7,46.8,34.4c0.3-2.8,0.5-5,0.7-7.7c1.6-0.1,3.2-0.1,4.7-0.3c3.1-0.4,5,0.7,4.3,4.1
		c-1.9,8.9,2.4,14.3,9.7,18.4c3.6,2,6.7,4.9,10.5,7.6c-1.7,2.5-3.4,4.9-5.3,7.6c-9.7-7.1-19.2-14.1-28.7-21.1
		c-13-9.6-26.1-19.1-38.9-28.8c-2.9-2.2-4.8-2-7.7,0.1C51.8,30.2,30.4,45.8,9.1,61.5C8.1,62.3,7,63,5.5,64c-1.8-2.5-3.6-4.8-5.5-7.4
		C25.7,37.7,51.2,19,76.9,0z"/>
</g>
</svg>
