<svg version="1.1" xmlns="http://www.w3.org/2000/svg" x="0px" y="0px"
	 viewBox="0 0 141.3 179.7" class="report-question-icon">
	    <style type="text/css">
        .report-question-icon {
            fill: #ffffff;
            width: 100%;
            height: auto;
        }
    </style>
<g id="_x33_UU5wB.tif">
	<g>
		<path d="M141.3,68.7c0,0.7,0,1.3,0,2c-6.7,12.2-18,17.3-31,18.9c-10.5,1.3-21.2,1.6-31.7,3.2c-9.7,1.5-18.4,5.5-24.3,14.1
			c-1.8,2.6-2,4.8-0.5,7.7c8,16.3,15.7,32.6,23.6,49c4.2,8.8,3.8,10.4-3.9,16.1c-2.3,0-4.7,0-7,0c-1.8-2.7-3.8-5.3-5.2-8.3
			c-9.8-20-19.4-40.1-29.1-60.1C21.8,90.4,11.7,69.4,1.6,48.5c-1.8-3.7-2.6-8,0.6-10.6c2.5-2.1,6.6-3,9.9-2.9
			c2.2,0.1,4.3,2.9,6.5,4.6c8.9-11.4,14.8-15.2,28.2-17.5c5.9-1,11.9-0.9,17.9-1.4c16.6-1.3,33.1-2.9,42.7-20.7
			c3.3,6.8,6.4,13,9.4,19.2C124.9,35.7,133.1,52.2,141.3,68.7z"/>
	</g>
</g>
</svg>
