<svg
    id="Layer_1"
    xmlns="http://www.w3.org/2000/svg"
    x="0px" y="0px"
    viewBox="0 0 200 178.1"
    class="znk-chat-chat-icon">
    <style>
        .znk-chat-chat-icon{
        width:25px;
        height:25px;
        enable-background:new 0 0 200 178.1;
        }
    </style>

    <g id="XMLID_14_">
        <path id="XMLID_42_" d="M2.4,71.1c1.6-5.4,2.7-11,5-16.2c9.7-22.2,27.1-36.4,49.2-44.5C98.3-4.8,137.7-0.4,172.8,28.2
		c13.1,10.7,21.4,24.6,24.1,41.7c0.1,0.4,0.5,0.8,0.7,1.2c0,4.9,0,9.8,0,14.6c-1.5,5.1-2.6,10.4-4.6,15.3
		c-8.3,20.4-23.8,33.8-43.2,42.9c-21.8,10.3-44.7,13.1-68.5,9.6c-2.3-0.3-4.9,0.1-7,0.9c-17.8,7-35.6,14.2-53.4,21.2
		c-1.9,0.7-4.2,0.4-6.4,0.6c-0.2-2.3-0.9-4.7-0.4-6.8c3.2-12.9,6.7-25.8,9.8-38.7c0.4-1.6,0.1-4-0.9-5.1C12.6,114.8,5.4,102.2,3,87
		c-0.1-0.5-0.4-0.9-0.6-1.3C2.4,80.9,2.4,76,2.4,71.1z M22.3,167.2c2.4-0.9,3.9-1.3,5.3-1.9c15.5-6.2,31-12.4,46.6-18.6
		c1.6-0.6,3.4-1.1,5.1-1c5.8,0.5,11.6,1.7,17.4,1.8c26,0.6,50.1-5.3,70.3-22.4c19-16.1,27.7-36.3,21.2-61.2
		c-5-19.1-18.1-32-34.8-41.3c-20.6-11.4-42.8-14.7-66-12.5c-18.4,1.8-35.5,7.6-50.5,18.8C22.5,39.6,12.6,53.3,10.2,71.4
		c-2.5,19.9,4.8,36.3,19,49.9c3,2.9,3.8,5.4,2.6,9.4c-1.8,5.7-3.1,11.6-4.6,17.4C25.6,154.1,24.1,160.2,22.3,167.2z"/>
        <path id="XMLID_36_" d="M103.6,62.3c-14.1,0-28.3,0-42.4,0c-1.1,0-2.5,0.4-3.4-0.1c-1.4-0.9-3.1-2.3-3.5-3.7
		c-0.2-0.8,1.9-2.5,3.3-3.3c0.8-0.5,2.2-0.2,3.4-0.2c28.6,0,57.2,0,85.8,0c1,0,2.2-0.3,2.9,0.1c1.4,1,2.5,2.4,3.8,3.7
		c-1.3,1.2-2.6,3.2-4,3.3c-4.3,0.4-8.8,0.2-13.1,0.2C125.4,62.3,114.5,62.3,103.6,62.3z"/>
        <path id="XMLID_35_" d="M104,76c14.5,0,28.9,0,43.4,0c2.7,0,5.8-0.1,5.9,3.4c0.2,3.9-3.1,3.8-6,3.8c-29.1,0-58.2,0-87.2,0
		c-2.6,0-5.8,0.3-5.9-3.4c-0.1-4,3.1-3.8,5.9-3.8C74.8,76,89.4,76,104,76z"/>
        <path id="XMLID_34_" d="M86.8,104.2c-8.9,0-17.9,0-26.8,0c-2.7,0-5.7,0-5.8-3.5c-0.2-3.7,2.8-3.8,5.5-3.8c18.2,0,36.4,0,54.6,0
		c2.5,0,5.2,0.1,5.3,3.5c0.1,3.7-2.7,3.8-5.5,3.8C105,104.2,95.9,104.2,86.8,104.2z"/>
    </g>
</svg>
